<?xml version="1.0" encoding="utf-8"?>
<!-- Generator: Adobe Illustrator 19.0.0, SVG Export Plug-In . SVG Version: 6.00 Build 0)  -->
<svg version="1.1" id="Layer_1" xmlns="http://www.w3.org/2000/svg" xmlns:xlink="http://www.w3.org/1999/xlink" x="0px" y="0px"
	 width="561.9px" height="200.7px" viewBox="-16 320.2 561.9 200.7" style="enable-background:new -16 320.2 561.9 200.7;"
	 xml:space="preserve">
<style type="text/css">
	.st0{fill:#333333;}
	.st1{fill:#FFC610;}
</style>
<g>
	<path id="XMLID_4_" class="st0" d="M117.8,446.5h23.9l-6.5,31.3h-23.9l-8.8,42.4H61.7l9-42.4H-16l5.7-27.7L99.3,320.8h45.3
		L117.8,446.5z M94.4,366.2c-1.3,2.1-2.8,4.5-4.5,7.2c-1.7,2.6-3.7,5.4-6,8.3l-53.5,64.9h47l13.5-61.3c0.7-3.2,1.5-6.6,2.2-9.9
		c0.7-3.4,1.5-6.4,2.2-9.1h-0.9C94.4,366.3,94.4,366.2,94.4,366.2z"/>
	<path id="XMLID_7_" class="st0" d="M519.1,446.5H543l-6.5,31.3h-23.9l-8.8,42.4h-40.7l9-42.4h-86.8l5.7-27.7l109.6-129.3h45.3
		L519.1,446.5z M495.7,366.2c-1.3,2.1-2.8,4.5-4.5,7.2c-1.7,2.6-3.7,5.4-6,8.3l-53.5,64.9h47l13.5-61.3c0.7-3.2,1.5-6.6,2.2-9.9
		c0.7-3.4,1.5-6.4,2.2-9.1h-0.9V366.2z"/>
	<g id="XMLID_68_">
		<path id="XMLID_6_" class="st1" d="M278,341.1c17.4-17.4,35.1-23.6,53.3-18.6c8.1,2.4,15.4,6.6,21.6,12.8
			c10.8,10.8,15.7,23.1,14.7,36.6c-1,12.8-6.9,24.8-17.9,35.8l-6.2-6.2c-7.7-7.7-11.1-18.8-9.1-29.6c0,0,0-0.1,0-0.1
			c1.2-5.6-0.2-10.3-3.9-14c-6.6-6.6-14-6.9-22.4-1.2c-1.3,1-4,3.4-7.6,6.9l-22.9,22.9c-12.4,12.4-32.5,12.4-44.9,0l0,0L278,341.1z"
			/>
		<circle id="XMLID_2_" class="st1" cx="220.9" cy="420.6" r="15.8"/>
	</g>
	<g id="XMLID_1_">
		<path id="XMLID_5_" class="st1" d="M257.9,500c-17.4,17.4-35.1,23.6-53.3,18.6c-8.1-2.4-15.4-6.6-21.6-12.8
			c-10.8-10.8-15.7-23.1-14.7-36.6c1-12.8,6.9-24.8,17.9-35.8l6.2,6.2c7.7,7.7,11.1,18.8,9.1,29.6c0,0,0,0.1,0,0.1
			c-1.2,5.6,0.2,10.3,3.9,14c6.6,6.6,14,6.9,22.4,1.2c1.3-1,4-3.4,7.6-6.9l22.9-22.9c12.4-12.4,32.5-12.4,44.9,0v0L257.9,500z"/>
		<circle id="XMLID_3_" class="st1" cx="315" cy="420.5" r="15.8"/>
	</g>
</g>
</svg>
