<?xml version="1.0" encoding="utf-8"?>
<!-- Generator: Adobe Illustrator 19.0.0, SVG Export Plug-In . SVG Version: 6.00 Build 0)  -->
<svg version="1.1" id="gacon" xmlns="http://www.w3.org/2000/svg" xmlns:xlink="http://www.w3.org/1999/xlink" x="0px" y="0px"
	 width="150px" height="150px" viewBox="-222 345.9 150 150" style="enable-background:new -222 345.9 150 150;"
	 xml:space="preserve">
<style type="text/css">
	.st0{fill:#FFC610;}
</style>
<g id="XMLID_68_">
	<path id="XMLID_4_" class="st0" d="M-139.5,362c12.9-12.9,26-17.5,39.5-13.8c6,1.8,11.4,4.9,16,9.5c8,8,11.6,17.1,10.9,27.2
		c-0.8,9.5-5.1,18.4-13.3,26.5l-4.6-4.6c-5.7-5.7-8.2-13.9-6.8-21.9c0,0,0-0.1,0-0.1c0.9-4.1-0.1-7.6-2.9-10.4
		c-4.9-4.9-10.4-5.1-16.6-0.9c-1,0.8-3,2.5-5.6,5.1l-17,17c-9.2,9.2-24.1,9.2-33.3,0l0,0L-139.5,362z"/>
	<circle id="XMLID_2_" class="st0" cx="-181.9" cy="421" r="11.7"/>
</g>
<g id="XMLID_1_">
	<path id="XMLID_5_" class="st0" d="M-154.5,479.8c-12.9,12.9-26,17.5-39.5,13.8c-6-1.8-11.4-4.9-16-9.5c-8-8-11.6-17.1-10.9-27.2
		c0.8-9.5,5.1-18.4,13.3-26.5l4.6,4.6c5.7,5.7,8.2,13.9,6.8,21.9c0,0,0,0.1,0,0.1c-0.9,4.1,0.1,7.6,2.9,10.4
		c4.9,4.9,10.4,5.1,16.6,0.9c1-0.8,3-2.5,5.6-5.1l17-17c9.2-9.2,24.1-9.2,33.3,0l0,0L-154.5,479.8z"/>
	<circle id="XMLID_3_" class="st0" cx="-112.1" cy="420.8" r="11.7"/>
</g>
</svg>
